# xmcd CD database file
#
# Track frame offsets:
#	150
#	30305
#	42865
#	55265
#	68165
#	81012
#	96540
#	109600
#	120377
#	131162
#	143790
#	151700
#	165902
#	177937
#	191300
#	212627
#	229062
#	239905
#	258052
#	266772
#	284652
#	296490
#	313227
#	322440
#
# Disc length: 4441 seconds
#
# Revision: 2
# Processed by: cddbd v1.4PL0 Copyright (c) Steve Scherf et al.
# Submitted via: CDex 1.40Release
#
DISCID=60115718
DTITLE=Fleetwood Mac - Green and Blues
DYEAR=1900
DGENRE=Blues
TTITLE0=Rattlesnake Shake
TTITLE1=Oh Well
TTITLE2=Long Grey Mare
TTITLE3=Baby Please Set A Date
TTITLE4=Got To Move
TTITLE5=Fool For Love
TTITLE6=Dust My Blues
TTITLE7=Looking For Somebody
TTITLE8=Where You Belong w-E. Boyd
TTITLE9=World Keeps Turning
TTITLE10=Don't Be Cruel
TTITLE11=Sun Is Shining
TTITLE12=Can't Hold Out
TTITLE13=Black Magic Woman
TTITLE14=Delta Head (Psychedelic Sendup)
TTITLE15=Love That Burns
TTITLE16=That Ain't It
TTITLE17=Mean Mistrating Mama
TTITLE18=Shelia
TTITLE19=A Talk Wish You
TTITLE20=Bo Diddley
TTITLE21=Jumping At Shadows
TTITLE22=Linda
TTITLE23=Oh Well (Part 1)
EXTD=ID3G: 0
EXTT0=
EXTT1=
EXTT2=
EXTT3=
EXTT4=
EXTT5=
EXTT6=
EXTT7=
EXTT8=
EXTT9=
EXTT10=
EXTT11=
EXTT12=
EXTT13=
EXTT14=
EXTT15=
EXTT16=
EXTT17=
EXTT18=
EXTT19=
EXTT20=
EXTT21=
EXTT22=
EXTT23=
PLAYORDER=
